<?xml version="1.0" encoding="UTF-8"?>
<svg version="1.1" xmlns="http://www.w3.org/2000/svg" width="417" height="106">
<path d="M0 0 C137.61 0 275.22 0 417 0 C417 34.98 417 69.96 417 106 C279.39 106 141.78 106 0 106 C0 71.02 0 36.04 0 0 Z " fill="#0A2342" transform="translate(0,0)"/>
<path d="M0 0 C1.06669922 0.0515625 2.13339844 0.103125 3.23242188 0.15625 C4.88661133 0.25292969 4.88661133 0.25292969 6.57421875 0.3515625 C7.69634766 0.40828125 8.81847656 0.465 9.97460938 0.5234375 C12.73750563 0.66452156 15.49970075 0.8192189 18.26171875 0.9765625 C18.75671875 6.4215625 18.75671875 6.4215625 19.26171875 11.9765625 C20.31359375 10.7184375 21.36546875 9.4603125 22.44921875 8.1640625 C27.42531285 2.48569705 31.50124002 0.29524714 38.94921875 -0.3359375 C43.92854637 -0.30780571 47.9118426 1.72107116 52.26171875 3.9765625 C52.59171875 3.3165625 52.92171875 2.6565625 53.26171875 1.9765625 C58.54171875 1.9765625 63.82171875 1.9765625 69.26171875 1.9765625 C69.38567797 9.23561432 69.47623096 16.49404469 69.53637695 23.75390625 C69.56146033 26.2214634 69.59553522 28.6889467 69.63891602 31.15625 C69.69983622 34.71112328 69.72799162 38.2650109 69.75 41.8203125 C69.77580643 42.91645874 69.80161285 44.01260498 69.82820129 45.14196777 C69.8311499 53.26564325 67.94164719 58.17176623 62.3046875 64 C53.9377027 70.09468788 45.44547828 70.96563267 35.26171875 69.9765625 C28.97099366 68.39961922 24.49042079 65.99814618 20.26171875 60.9765625 C19.60171875 60.3165625 18.94171875 59.6565625 18.26171875 58.9765625 C18.26171875 57.9865625 18.26171875 56.9965625 18.26171875 55.9765625 C19.83704961 55.10772544 21.42236384 54.25697182 23.01171875 53.4140625 C23.8934375 52.93839844 24.77515625 52.46273437 25.68359375 51.97265625 C28.51005842 50.88061308 29.51007718 50.83549299 32.26171875 51.9765625 C33.34453125 52.75 33.34453125 52.75 34.44921875 53.5390625 C38.42790022 55.5726108 41.87631813 55.54062671 46.26171875 54.9765625 C49.31821161 54.12819726 49.31821161 54.12819726 51.26171875 51.9765625 C52.15763958 48.37736827 52.15763958 48.37736827 52.26171875 44.9765625 C51.25431641 45.46189453 51.25431641 45.46189453 50.2265625 45.95703125 C46.63254708 47.19291797 43.62118781 47.27759129 39.82421875 47.2890625 C38.54675781 47.30582031 37.26929687 47.32257813 35.953125 47.33984375 C30.95112388 46.84758332 27.76075871 45.42305308 24.14453125 41.93359375 C22.51692708 39.94791667 20.88932292 37.96223958 19.26171875 35.9765625 C18.76671875 40.9265625 18.76671875 40.9265625 18.26171875 45.9765625 C12.98171875 45.9765625 7.70171875 45.9765625 2.26171875 45.9765625 C1.93171875 36.0765625 1.60171875 26.1765625 1.26171875 15.9765625 C-9.5390582 14.02686482 -9.5390582 14.02686482 -13.9375 16.58203125 C-16.79040856 21.95985671 -16.52174552 27.29157187 -16.55078125 33.2890625 C-16.57591797 34.50658203 -16.60105469 35.72410156 -16.62695312 36.97851562 C-16.68575709 39.97751769 -16.71489758 42.97707513 -16.73828125 45.9765625 C-22.01828125 45.9765625 -27.29828125 45.9765625 -32.73828125 45.9765625 C-32.73828125 31.1265625 -32.73828125 16.2765625 -32.73828125 0.9765625 C-27.45828125 0.9765625 -22.17828125 0.9765625 -16.73828125 0.9765625 C-16.40828125 2.6265625 -16.07828125 4.2765625 -15.73828125 5.9765625 C-15.01640625 5.3578125 -14.29453125 4.7390625 -13.55078125 4.1015625 C-9.03628695 0.69061125 -5.63238187 -0.30119689 0 0 Z " fill="#F7F8F9" transform="translate(87.73828125,31.0234375)"/>
<path d="M0 0 C2.8533735 1.66491399 4.92538571 3.73143373 7.08203125 6.21484375 C7.74203125 6.87484375 8.40203125 7.53484375 9.08203125 8.21484375 C9.41074219 7.7559375 9.73945313 7.29703125 10.078125 6.82421875 C14.00797619 1.75481721 17.9131183 -0.96375489 24.08203125 -2.78515625 C30.92943266 -3.64108143 37.39692429 -1.57522756 43.08203125 2.21484375 C43.08203125 1.22484375 43.08203125 0.23484375 43.08203125 -0.78515625 C48.03203125 -0.78515625 52.98203125 -0.78515625 58.08203125 -0.78515625 C58.23089239 6.59797441 58.3394949 13.98022219 58.41162109 21.36450195 C58.44170322 23.87377144 58.48257989 26.38293656 58.53466797 28.8918457 C58.60785551 32.5088889 58.64157545 36.12453622 58.66796875 39.7421875 C58.69893646 40.85504623 58.72990417 41.96790497 58.7618103 43.11448669 C58.76504498 50.6833813 57.20231143 55.54368844 52.08203125 61.21484375 C49.4140625 63.15234375 49.4140625 63.15234375 46.89453125 64.21484375 C45.63576172 64.77171875 45.63576172 64.77171875 44.3515625 65.33984375 C36.02124966 68.55153063 26.47620511 68.16016791 18.08203125 65.21484375 C13.29313138 62.58564382 10.28542428 59.54884608 7.08203125 55.21484375 C7.08203125 54.55484375 7.08203125 53.89484375 7.08203125 53.21484375 C8.82497803 52.34637544 10.57671788 51.49553748 12.33203125 50.65234375 C13.3065625 50.17667969 14.28109375 49.70101562 15.28515625 49.2109375 C18.27005195 48.14788107 19.23873732 47.95181029 22.08203125 49.21484375 C22.72269531 49.72015625 23.36335938 50.22546875 24.0234375 50.74609375 C27.17911173 52.99758048 29.89219778 52.74981274 33.6640625 52.6328125 C36.37345636 52.34108257 36.37345636 52.34108257 39.20703125 50.02734375 C41.20409569 47.03174709 41.58358667 45.72573169 41.08203125 42.21484375 C40.40785156 42.53582031 39.73367188 42.85679688 39.0390625 43.1875 C32.86565119 45.33229151 24.59500892 45.5600193 18.4296875 43.19921875 C16.46718637 41.98590334 14.7823664 40.77056277 13.08203125 39.21484375 C12.540625 38.72628906 11.99921875 38.23773438 11.44140625 37.734375 C10.08203125 36.21484375 10.08203125 36.21484375 9.08203125 33.21484375 C8.58703125 38.16484375 8.58703125 38.16484375 8.08203125 43.21484375 C2.80203125 43.21484375 -2.47796875 43.21484375 -7.91796875 43.21484375 C-7.95535156 41.07242188 -7.99273437 38.93 -8.03125 36.72265625 C-8.07744438 34.65077423 -8.12868522 32.57907441 -8.18041992 30.50732422 C-8.21370053 29.06603033 -8.24172279 27.62460512 -8.2644043 26.18310547 C-8.29789495 24.11238578 -8.35020175 22.04287282 -8.40625 19.97265625 C-8.43243408 18.72629395 -8.45861816 17.47993164 -8.4855957 16.19580078 C-8.62827881 15.21208496 -8.77096191 14.22836914 -8.91796875 13.21484375 C-12.63855235 10.73445468 -14.51593446 10.75147172 -18.91796875 11.21484375 C-21.86109322 13.39225591 -22.80781669 14.60457375 -23.46386719 18.23925781 C-23.49528809 19.96740723 -23.49528809 19.96740723 -23.52734375 21.73046875 C-23.55957031 22.98085938 -23.59179688 24.23125 -23.625 25.51953125 C-23.64626953 27.47246094 -23.64626953 27.47246094 -23.66796875 29.46484375 C-23.71244141 31.44097656 -23.71244141 31.44097656 -23.7578125 33.45703125 C-23.82851411 36.70930509 -23.87550445 39.96207867 -23.91796875 43.21484375 C-29.19796875 43.21484375 -34.47796875 43.21484375 -39.91796875 43.21484375 C-39.91796875 28.36484375 -39.91796875 13.51484375 -39.91796875 -1.78515625 C-34.63796875 -1.78515625 -29.35796875 -1.78515625 -23.91796875 -1.78515625 C-23.58796875 -0.46515625 -23.25796875 0.85484375 -22.91796875 2.21484375 C-21.52578125 1.25578125 -21.52578125 1.25578125 -20.10546875 0.27734375 C-13.16045588 -4.21648811 -7.18637575 -3.44015602 0 0 Z " fill="#F8F9FA" transform="translate(357.91796875,33.78515625)"/>
<path d="M0 0 C6.71588542 3.24713542 6.71588542 3.24713542 9.41015625 5.94140625 C10.29703125 5.15765625 11.18390625 4.37390625 12.09765625 3.56640625 C15.8062818 0.50765668 18.79158568 -0.83643701 23.59765625 -1.49609375 C29.4728532 -0.82189082 35.36278315 1.46675529 39.20703125 6.11328125 C39.80257812 7.01820312 39.80257812 7.01820312 40.41015625 7.94140625 C40.74015625 5.63140625 41.07015625 3.32140625 41.41015625 0.94140625 C46.69015625 0.94140625 51.97015625 0.94140625 57.41015625 0.94140625 C57.41015625 15.46140625 57.41015625 29.98140625 57.41015625 44.94140625 C46.85015625 44.94140625 36.29015625 44.94140625 25.41015625 44.94140625 C25.16015625 30.62890625 25.16015625 30.62890625 25.11230469 26.1237793 C25.06638184 24.36868042 25.06638184 24.36868042 25.01953125 22.578125 C24.99858398 21.37889404 24.97763672 20.17966309 24.95605469 18.9440918 C24.6859349 15.8726214 24.6859349 15.8726214 22.56738281 14.04614258 C19.68614742 12.57063441 17.60163603 12.59450627 14.41015625 12.94140625 C11.58136339 15.77019911 12.09588965 17.74064823 11.99609375 21.69921875 C11.9767276 22.3622702 11.95736145 23.02532166 11.93740845 23.70846558 C11.87759671 25.82764802 11.83122237 27.94688475 11.78515625 30.06640625 C11.7469778 31.50262794 11.70792614 32.9388267 11.66796875 34.375 C11.57024806 37.89701654 11.49069749 41.41878697 11.41015625 44.94140625 C6.13015625 44.94140625 0.85015625 44.94140625 -4.58984375 44.94140625 C-4.615625 42.9665625 -4.64140625 40.99171875 -4.66796875 38.95703125 C-4.72424188 36.36846724 -4.78158938 33.77992643 -4.83984375 31.19140625 C-4.85402344 29.88945313 -4.86820313 28.5875 -4.8828125 27.24609375 C-4.91503906 25.99570312 -4.94726562 24.7453125 -4.98046875 23.45703125 C-5.00141602 22.30493164 -5.02236328 21.15283203 -5.04394531 19.96582031 C-5.69843777 16.33976816 -6.66955385 15.12931018 -9.58984375 12.94140625 C-12.67446346 12.44098479 -12.67446346 12.44098479 -15.58984375 12.94140625 C-18.41863661 15.77019911 -17.90411035 17.74064823 -18.00390625 21.69921875 C-18.0232724 22.3622702 -18.04263855 23.02532166 -18.06259155 23.70846558 C-18.12240329 25.82764802 -18.16877763 27.94688475 -18.21484375 30.06640625 C-18.2530222 31.50262794 -18.29207386 32.9388267 -18.33203125 34.375 C-18.42975194 37.89701654 -18.50930251 41.41878697 -18.58984375 44.94140625 C-23.86984375 44.94140625 -29.14984375 44.94140625 -34.58984375 44.94140625 C-34.58984375 30.42140625 -34.58984375 15.90140625 -34.58984375 0.94140625 C-29.30984375 0.94140625 -24.02984375 0.94140625 -18.58984375 0.94140625 C-18.25984375 1.60140625 -17.92984375 2.26140625 -17.58984375 2.94140625 C-16.84541016 2.50828125 -16.84541016 2.50828125 -16.0859375 2.06640625 C-10.49858045 -0.98702606 -6.23249811 -2.54752185 0 0 Z " fill="#F7F8F9" transform="translate(241.58984375,32.05859375)"/>
<path d="M0 0 C0.33 -0.99 0.66 -1.98 1 -3 C6.28 -3 11.56 -3 17 -3 C17 11.85 17 26.7 17 42 C11.72 42 6.44 42 1 42 C0.67 41.01 0.34 40.02 0 39 C-0.86625 39.66 -1.7325 40.32 -2.625 41 C-8.27920458 44.23758136 -14.71017795 43.73419102 -21 43 C-26.70965223 40.45104811 -30.69921051 35.44330482 -34.140625 30.29296875 C-36.55259337 23.8573986 -36.26684616 14.50711455 -33.9375 8.05859375 C-30.45162954 2.46036157 -25.34370802 -1.6926704 -18.98828125 -3.60546875 C-11.56461163 -5.07853482 -6.55514137 -3.39896219 0 0 Z " fill="#F7F7F8" transform="translate(37,35)"/>
<path d="M0 0 C4.95 0 9.9 0 15 0 C15.03738281 1.81886719 15.07476562 3.63773438 15.11328125 5.51171875 C15.17894256 7.9036664 15.24538984 10.29559256 15.3125 12.6875 C15.33505859 13.88568359 15.35761719 15.08386719 15.38085938 16.31835938 C15.41630859 17.47529297 15.45175781 18.63222656 15.48828125 19.82421875 C15.51446533 20.88729248 15.54064941 21.95036621 15.56762695 23.0456543 C16.05930493 26.40522246 16.92040732 28.32623798 19 31 C22.89335307 31.97333827 25.17853346 32.27382218 29 31 C31.28185982 27.72156501 31.30328498 24.61726419 31.4140625 20.703125 C31.45273438 19.49785156 31.49140625 18.29257812 31.53125 17.05078125 C31.57765625 15.16939453 31.57765625 15.16939453 31.625 13.25 C31.66367188 11.98027344 31.70234375 10.71054687 31.7421875 9.40234375 C31.8364394 6.26846819 31.91930782 3.13425402 32 0 C37.28 0 42.56 0 48 0 C48.04608353 4.16287897 48.0858556 8.32486153 48.10986328 12.48779297 C48.11987856 13.90188609 48.13349474 15.31595873 48.15087891 16.72998047 C48.17532559 18.77055946 48.18652784 20.81086303 48.1953125 22.8515625 C48.21102295 24.68968506 48.21102295 24.68968506 48.22705078 26.56494141 C47.79146723 33.154899 45.66264589 37.33735411 41 42 C35.16613342 45.18073863 30.13494321 45.48888371 23.5625 45.4375 C22.65951172 45.45748047 21.75652344 45.47746094 20.82617188 45.49804688 C13.82938779 45.49298041 8.66149609 44.32858177 3.40771484 39.55249023 C-1.85766982 32.95270189 -0.53667645 23.9603787 -0.3125 16 C-0.28738325 14.44665051 -0.26457603 12.89326187 -0.24414062 11.33984375 C-0.19369085 7.55812865 -0.09582555 3.78191501 0 0 Z " fill="#FAFBFB" transform="translate(158,33)"/>
<path d="M0 0 C5.28 0 10.56 0 16 0 C16 24.42 16 48.84 16 74 C10.72 74 5.44 74 0 74 C-0.495 45.29 -0.495 45.29 -1 16 C-2.32 17.32 -3.64 18.64 -5 20 C-7.85324437 21.42662219 -9.83454549 21.31033868 -13 21 C-15.69990662 19.20006226 -17.5418865 17.916227 -19 15 C-19.48153012 10.7464839 -19.44716755 8.6779637 -17.0625 5.0625 C-13.45813948 2.63507352 -11.35091851 2.33864004 -7.09375 2.55859375 C-4.12529333 3.18440644 -2.74105411 4.57766385 -1 7 C-0.67 4.69 -0.34 2.38 0 0 Z " fill="#FCFCFC" transform="translate(301,3)"/>
<path d="M0 0 C0.33 0 0.66 0 1 0 C1 24.42 1 48.84 1 74 C0.67 74 0.34 74 0 74 C-0.495 45.29 -0.495 45.29 -1 16 C-2.32 17.32 -3.64 18.64 -5 20 C-7.85324437 21.42662219 -9.83454549 21.31033868 -13 21 C-15.69990662 19.20006226 -17.5418865 17.916227 -19 15 C-19.48153012 10.7464839 -19.44716755 8.6779637 -17.0625 5.0625 C-13.45813948 2.63507352 -11.35091851 2.33864004 -7.09375 2.55859375 C-4.12529333 3.18440644 -2.74105411 4.57766385 -1 7 C-0.67 4.69 -0.34 2.38 0 0 Z " fill="#E8EAED" transform="translate(301,3)"/>
<path d="M0 0 C3.5386994 1.65139305 4.81070153 2.71605229 7 6 C7.34061873 9.0169088 7.57212107 11.09407815 7 14 C3.85987727 17.883836 1.71258797 19.8023937 -3.25 20.375 C-6.98037178 20.00196282 -9.1265573 19.36173839 -11.88671875 16.7578125 C-13.80548103 13.72818784 -13.80731469 10.89304278 -13.58203125 7.3828125 C-12.95216115 4.80414968 -12.35292868 3.68200819 -10.4375 1.875 C-6.47435139 -0.28671743 -4.44556265 -0.64662729 0 0 Z " fill="#0F2746" transform="translate(394,45)"/>
<path d="M0 0 C2.9375 1.4375 2.9375 1.4375 5 4 C6.29947616 8.32620634 6.52896531 11.75693153 4.75 15.9375 C2.00521178 19.17242897 0.37079168 19.95813642 -3.875 20.4375 C-7.13481227 20.32322614 -8.09017136 19.9436429 -11 18.125 C-13.80989899 13.73453283 -14.0151866 10.07593299 -13 5 C-9.64735907 -0.23850145 -5.84984017 -1.22905733 0 0 Z " fill="#0C2444" transform="translate(32,45)"/>
<path d="M0 0 C3.9295493 0.92685276 5.41241975 2.29808529 8.00390625 5.47265625 C8.74384998 8.62026306 8.6896709 11.31813886 8.00390625 14.47265625 C6.20996957 17.34295494 5.02127349 18.96397263 2.00390625 20.47265625 C-1.00689367 20.81815788 -3.08874004 21.03967361 -5.99609375 20.47265625 C-9.24769017 17.83073416 -10.6042678 16.30331846 -11.47265625 12.24609375 C-11.73828311 8.06596579 -11.32058884 5.96953935 -8.99609375 2.41015625 C-5.8727976 0.39302749 -3.73747357 -0.27658723 0 0 Z " fill="#0B2343" transform="translate(132.99609375,44.52734375)"/>
<path d="M0 0 C2.875 1.5 2.875 1.5 5 4 C5.78787981 7.16929095 5.79489459 9.83169675 5 13 C2.7330401 16.35788599 -0.03213441 17.79836133 -4 18.625 C-7.96469261 17.79902237 -10.73905322 16.3604483 -13 13 C-13.73836934 9.85633661 -13.70033606 7.14856966 -13 4 C-9.3961478 -0.97083063 -5.75843309 -1.4971926 0 0 Z " fill="#F4F5F7" transform="translate(102,6)"/>
<path d="M0 0 C0.66 0 1.32 0 2 0 C2 0.99 2 1.98 2 3 C2.78375 2.95875 3.5675 2.9175 4.375 2.875 C7 3 7 3 9 5 C9.25 7.5 9.25 7.5 9 10 C7 12 7 12 3.375 12.125 C2.26125 12.08375 1.1475 12.0425 0 12 C0 8.04 0 4.08 0 0 Z " fill="#DBE8E2" transform="translate(241,81)"/>
<path d="M0 0 C2.5625 0.1875 2.5625 0.1875 4.5625 2.1875 C4.75 5.25 4.75 5.25 4.5625 8.1875 C3.5625 9.1875 3.5625 9.1875 0.625 9.375 C-2.4375 9.1875 -2.4375 9.1875 -4.4375 7.1875 C-3.73338608 0.28718354 -3.73338608 0.28718354 0 0 Z " fill="#BFCAD1" transform="translate(223.4375,83.8125)"/>
<path d="M0 0 C2.4375 0.1875 2.4375 0.1875 3.4375 1.1875 C3.5625 4.6875 3.5625 4.6875 3.4375 8.1875 C2.4375 9.1875 2.4375 9.1875 0 9.375 C-2.5625 9.1875 -2.5625 9.1875 -4.5625 7.1875 C-4.8125 4.6875 -4.8125 4.6875 -4.5625 2.1875 C-2.5625 0.1875 -2.5625 0.1875 0 0 Z " fill="#B7C3CB" transform="translate(319.5625,83.8125)"/>
<path d="M0 0 C0.66 0 1.32 0 2 0 C2.66 0.99 3.32 1.98 4 3 C4.33 2.34 4.66 1.68 5 1 C5.66 1 6.32 1 7 1 C7.33 1.66 7.66 2.32 8 3 C8.66 2.01 9.32 1.02 10 0 C10.66 0 11.32 0 12 0 C11.44271087 3.34373475 10.64826111 6.03312999 9 9 C8.34 9 7.68 9 7 9 C6.67 8.01 6.34 7.02 6 6 C5.01 7.485 5.01 7.485 4 9 C3.34 9 2.68 9 2 9 C1.34 6.03 0.68 3.06 0 0 Z " fill="#BDD3DB" transform="translate(195,84)"/>
<path d="M0 0 C1.65 0.33 3.3 0.66 5 1 C4.01 1.66 3.02 2.32 2 3 C3.32 3.66 4.64 4.32 6 5 C5.67 6.32 5.34 7.64 5 9 C3.02 9 1.04 9 -1 9 C-1.33 8.01 -1.66 7.02 -2 6 C-0.35 6 1.3 6 3 6 C1.68 5.34 0.36 4.68 -1 4 C-0.67 2.68 -0.34 1.36 0 0 Z " fill="#D8DBD5" transform="translate(264,84)"/>
<path d="M0 0 C0.66 0 1.32 0 2 0 C2 0.66 2 1.32 2 2 C2.66 2 3.32 2 4 2 C4 2.66 4 3.32 4 4 C3.34 4 2.68 4 2 4 C2 5.65 2 7.3 2 9 C2.66 9 3.32 9 4 9 C4 9.66 4 10.32 4 11 C2.68 10.67 1.36 10.34 0 10 C-1.125 2.25 -1.125 2.25 0 0 Z " fill="#D6E7E8" transform="translate(298,82)"/>
<path d="M0 0 C0.66 0 1.32 0 2 0 C2.33 1.65 2.66 3.3 3 5 C3.66 5 4.32 5 5 5 C4.67 6.32 4.34 7.64 4 9 C3.34 9 2.68 9 2 9 C1.34 6.03 0.68 3.06 0 0 Z " fill="#D8E3DF" transform="translate(195,84)"/>
<path d="M0 0 C0.66 0 1.32 0 2 0 C2 1.65 2 3.3 2 5 C3.65 5.33 5.3 5.66 7 6 C6.67 6.66 6.34 7.32 6 8 C4.02 8 2.04 8 0 8 C0 5.36 0 2.72 0 0 Z " fill="#ECE4D9" transform="translate(242,85)"/>
<path d="M0 0 C0.66 0.33 1.32 0.66 2 1 C-0.97 3.97 -3.94 6.94 -7 10 C-7 7 -7 7 -4.625 4.4375 C-3.75875 3.633125 -2.8925 2.82875 -2 2 C-1.34 1.34 -0.68 0.68 0 0 Z " fill="#D5D9DF" transform="translate(12,34)"/>
<path d="M0 0 C1.98 0.495 1.98 0.495 4 1 C3.67 2.32 3.34 3.64 3 5 C1.68 4.67 0.36 4.34 -1 4 C-0.67 2.68 -0.34 1.36 0 0 Z " fill="#0F2351" transform="translate(244,86)"/>
<path d="M0 0 C0.66 0 1.32 0 2 0 C1.44271087 3.34373475 0.64826111 6.03312999 -1 9 C-2.25541557 5.23375329 -1.37061958 3.62811066 0 0 Z " fill="#E3E9DF" transform="translate(205,84)"/>
<path d="M0 0 C2.0625 0.4375 2.0625 0.4375 4 1 C4 2.32 4 3.64 4 5 C2.02 5 0.04 5 -2 5 C-0.68 4.34 0.64 3.68 2 3 C1.01 2.34 0.02 1.68 -1 1 C-0.67 0.67 -0.34 0.34 0 0 Z " fill="#ECEBE7" transform="translate(319,84)"/>
</svg>
