<?xml version="1.0" encoding="UTF-8"?>
<svg version="1.1" xmlns="http://www.w3.org/2000/svg" width="426" height="118">
<path d="M0 0 C140.58 0 281.16 0 426 0 C426 38.94 426 77.88 426 118 C285.42 118 144.84 118 0 118 C0 79.06 0 40.12 0 0 Z " fill="#FCFCFC" transform="translate(0,0)"/>
<path d="M0 0 C1.34755007 0.08248254 2.69521443 0.1631125 4.04296875 0.2421875 C7.69770276 0.46438846 11.34889574 0.72407309 15 1 C15.495 7.435 15.495 7.435 16 14 C16.721875 12.7625 17.44375 11.525 18.1875 10.25 C21.19619593 5.43948618 24.71937851 2.17491566 30 0 C38.03743215 -0.91431106 44.13583057 -0.30692984 51 4 C51 3.01 51 2.02 51 1 C55.95 1 60.9 1 66 1 C66.09916768 8.25907443 66.17161155 15.51775106 66.21972656 22.77734375 C66.23979295 25.24486158 66.26705244 27.71233215 66.30175781 30.1796875 C66.35049306 33.73449393 66.37301939 37.28866944 66.390625 40.84375 C66.41127014 41.93989624 66.43191528 43.03604248 66.45318604 44.16540527 C66.45514895 50.92542454 65.61618331 55.24389046 62 61 C59.74609375 63.05859375 59.74609375 63.05859375 57.4375 64.4375 C56.67308594 64.91058594 55.90867187 65.38367188 55.12109375 65.87109375 C50.24496381 68.4663084 45.6989628 68.25416286 40.3125 68.3125 C39.00249023 68.35600586 39.00249023 68.35600586 37.66601562 68.40039062 C30.9236111 68.46585086 25.45273276 67.2082588 20.40356445 62.51660156 C18.07968788 59.90208884 17 58.56638968 17 55 C18.5725165 54.10570626 20.15853741 53.23512573 21.75 52.375 C22.63171875 51.88773438 23.5134375 51.40046875 24.421875 50.8984375 C27 50 27 50 29.140625 50.7265625 C29.75421875 51.14679688 30.3678125 51.56703125 31 52 C35.45908186 54.97272124 39.77391531 54.74112605 45 54 C48.71451719 51.47412831 49.74673579 50.03253868 50.8125 45.6875 C50.874375 44.800625 50.93625 43.91375 51 43 C50.13375 43.495 49.2675 43.99 48.375 44.5 C42.50536735 46.96954057 36.22158634 46.86567321 30 46 C23.99663947 43.53251707 20.02283765 39.66782059 17 34 C16.67 33.01 16.34 32.02 16 31 C15.67 35.62 15.34 40.24 15 45 C10.05 45 5.1 45 0 45 C-0.33 34.77 -0.66 24.54 -1 14 C-1.66 14.33 -2.32 14.66 -3 15 C-3.66 14.67 -4.32 14.34 -5 14 C-7.10854036 13.7647268 -7.10854036 13.7647268 -9.4375 13.75 C-10.61119141 13.71132813 -10.61119141 13.71132813 -11.80859375 13.671875 C-14.51738351 14.07746919 -15.3216094 14.88533049 -17 17 C-18.34106405 19.6821281 -18.21450419 21.88398032 -18.31640625 24.8828125 C-18.35830078 26.04941406 -18.40019531 27.21601562 -18.44335938 28.41796875 C-18.50233398 30.25294922 -18.50233398 30.25294922 -18.5625 32.125 C-18.60568359 33.35605469 -18.64886719 34.58710937 -18.69335938 35.85546875 C-18.79968623 38.90350512 -18.90036972 41.95173739 -19 45 C-23.95 45 -28.9 45 -34 45 C-34 30.48 -34 15.96 -34 1 C-29.05 1 -24.1 1 -19 1 C-18.67 2.32 -18.34 3.64 -18 5 C-17.071875 4.175 -16.14375 3.35 -15.1875 2.5 C-10.2614007 -0.98071687 -5.81415239 -0.4401434 0 0 Z " fill="#030303" transform="translate(89,40)"/>
<path d="M0 0 C4.95352897 2.27268651 8.12426487 5.346186 10.5859375 10.26953125 C11.2459375 9.38265625 11.9059375 8.49578125 12.5859375 7.58203125 C16.5979127 2.89024915 20.46016063 -0.28113832 26.7109375 -1.1796875 C33.79267755 -1.41738479 38.58901661 -0.49324264 44.5859375 3.26953125 C44.9159375 2.27953125 45.2459375 1.28953125 45.5859375 0.26953125 C50.5359375 0.26953125 55.4859375 0.26953125 60.5859375 0.26953125 C60.68511906 7.38618953 60.75755546 14.50244176 60.80566406 21.61962891 C60.82572815 24.03864555 60.85298593 26.45761401 60.88769531 28.87646484 C60.93644091 32.36177493 60.95895914 35.84644141 60.9765625 39.33203125 C60.99720764 40.40630371 61.01785278 41.48057617 61.03912354 42.58740234 C61.04136621 50.16224926 59.7636915 55.15381423 55.05078125 61.2578125 C48.30890481 67.10307111 39.85926152 68.87620685 31.06640625 68.5546875 C23.58262846 67.69434769 17.92770461 65.61129836 12.5859375 60.26953125 C10.5859375 57.26953125 10.5859375 57.26953125 10.5859375 54.26953125 C14.154047 52.23061154 17.63514931 50.43595443 21.5859375 49.26953125 C25.0859375 50.95703125 25.0859375 50.95703125 26.69921875 52.1875 C30.60881429 54.429649 35.25596716 53.93515268 39.5859375 53.26953125 C42.36158595 51.91190971 42.36158595 51.91190971 43.5859375 49.26953125 C44.39359628 45.62231429 44.39359628 45.62231429 44.5859375 42.26953125 C43.6990625 42.76453125 42.8121875 43.25953125 41.8984375 43.76953125 C35.48152713 46.51963569 27.80786572 46.22417665 21.2109375 44.26953125 C17.40658034 41.37097341 14.61763291 37.96819965 11.5859375 34.26953125 C11.0909375 39.21953125 11.0909375 39.21953125 10.5859375 44.26953125 C5.6359375 44.26953125 0.6859375 44.26953125 -4.4140625 44.26953125 C-4.42824219 42.30628906 -4.44242187 40.34304687 -4.45703125 38.3203125 C-4.50393035 35.74086186 -4.55217774 33.16143549 -4.6015625 30.58203125 C-4.60736328 29.28845703 -4.61316406 27.99488281 -4.61914062 26.66210938 C-4.64814453 25.41494141 -4.67714844 24.16777344 -4.70703125 22.8828125 C-4.7227417 21.73594971 -4.73845215 20.58908691 -4.75463867 19.4074707 C-5.60783164 15.34745986 -7.19662302 13.81042715 -10.4140625 11.26953125 C-14.00499498 11.19624691 -15.72381925 11.73574733 -18.55957031 13.92871094 C-20.99153489 16.9984419 -20.95274805 18.89723659 -21.0234375 22.78515625 C-21.05566406 24.03554687 -21.08789062 25.2859375 -21.12109375 26.57421875 C-21.14236328 28.52714844 -21.14236328 28.52714844 -21.1640625 30.51953125 C-21.19371094 31.83695313 -21.22335937 33.154375 -21.25390625 34.51171875 C-21.32460786 37.76399259 -21.3715982 41.01676617 -21.4140625 44.26953125 C-26.3640625 44.26953125 -31.3140625 44.26953125 -36.4140625 44.26953125 C-36.4140625 29.74953125 -36.4140625 15.22953125 -36.4140625 0.26953125 C-31.4640625 0.26953125 -26.5140625 0.26953125 -21.4140625 0.26953125 C-21.0840625 1.25953125 -20.7540625 2.24953125 -20.4140625 3.26953125 C-19.6715625 2.60953125 -18.9290625 1.94953125 -18.1640625 1.26953125 C-12.88083179 -2.23592988 -5.87998462 -1.77921865 0 0 Z " fill="#040404" transform="translate(354.4140625,40.73046875)"/>
<path d="M0 0 C2.67566472 1.78377648 5.17847132 3.66325495 7.625 5.75 C7.625 5.09 7.625 4.43 7.625 3.75 C11.63400094 -0.04074587 15.7761223 -1.61521231 21.25 -1.75 C25.69874439 -1.52233258 28.91768501 -0.87224719 32.625 1.75 C37.19725359 6.81655127 37.76810041 9.95164132 37.72265625 16.6015625 C37.7212413 17.37559418 37.71982635 18.14962585 37.71836853 18.94711304 C37.71276403 21.42311442 37.70021083 23.89902588 37.6875 26.375 C37.68248558 28.05208203 37.67792257 29.72916547 37.67382812 31.40625 C37.66279315 35.52086806 37.64552554 39.63541878 37.625 43.75 C32.675 43.75 27.725 43.75 22.625 43.75 C22.56441406 41.69136719 22.50382812 39.63273437 22.44140625 37.51171875 C22.37882342 35.51602171 22.31620874 33.52032553 22.25268555 31.5246582 C22.20939782 30.13864017 22.16771836 28.75257094 22.12768555 27.36645508 C22.06983416 25.37308202 22.00570224 23.37989435 21.94140625 21.38671875 C21.88641968 19.58787231 21.88641968 19.58787231 21.83032227 17.75268555 C21.74766975 14.70005651 21.74766975 14.70005651 20.625 11.75 C16.995 11.75 13.365 11.75 9.625 11.75 C8.50316292 15.11551123 8.41699032 17.84060232 8.30859375 21.38671875 C8.24575195 23.33481445 8.24575195 23.33481445 8.18164062 25.32226562 C8.14183013 26.69400761 8.10211784 28.06575244 8.0625 29.4375 C8.01929165 30.82097645 7.97567661 32.20444027 7.93164062 33.58789062 C7.82542035 36.97513714 7.72469312 40.36255509 7.625 43.75 C2.675 43.75 -2.275 43.75 -7.375 43.75 C-7.43558594 41.69136719 -7.49617188 39.63273437 -7.55859375 37.51171875 C-7.62117658 35.51602171 -7.68379126 33.52032553 -7.74731445 31.5246582 C-7.79060218 30.13864017 -7.83228164 28.75257094 -7.87231445 27.36645508 C-7.93016584 25.37308202 -7.99429776 23.37989435 -8.05859375 21.38671875 C-8.09525146 20.18748779 -8.13190918 18.98825684 -8.16967773 17.75268555 C-8.25233025 14.70005651 -8.25233025 14.70005651 -9.375 11.75 C-13.005 11.75 -16.635 11.75 -20.375 11.75 C-21.49683708 15.11551123 -21.58300968 17.84060232 -21.69140625 21.38671875 C-21.73330078 22.68544922 -21.77519531 23.98417969 -21.81835938 25.32226562 C-21.85816987 26.69400761 -21.89788216 28.06575244 -21.9375 29.4375 C-21.98070835 30.82097645 -22.02432339 32.20444027 -22.06835938 33.58789062 C-22.17457965 36.97513714 -22.27530688 40.36255509 -22.375 43.75 C-27.325 43.75 -32.275 43.75 -37.375 43.75 C-37.375 29.23 -37.375 14.71 -37.375 -0.25 C-32.425 -0.25 -27.475 -0.25 -22.375 -0.25 C-22.375 1.07 -22.375 2.39 -22.375 3.75 C-21.92511719 3.3890625 -21.47523438 3.028125 -21.01171875 2.65625 C-14.33846386 -2.15812227 -7.74388728 -2.8681064 0 0 Z " fill="#020202" transform="translate(243.375,41.25)"/>
<path d="M0 0 C2.18359375 1.1015625 2.18359375 1.1015625 5.37109375 3.1015625 C5.37109375 2.1115625 5.37109375 1.1215625 5.37109375 0.1015625 C10.32109375 0.1015625 15.27109375 0.1015625 20.37109375 0.1015625 C20.37109375 14.6215625 20.37109375 29.1415625 20.37109375 44.1015625 C15.42109375 44.1015625 10.47109375 44.1015625 5.37109375 44.1015625 C5.04109375 43.1115625 4.71109375 42.1215625 4.37109375 41.1015625 C3.29859375 41.7615625 2.22609375 42.4215625 1.12109375 43.1015625 C-4.35152493 45.80876217 -9.64390561 46.03470776 -15.62890625 45.1015625 C-23.16204617 42.11765643 -27.4606176 36.38688558 -30.62890625 29.1015625 C-31.52309508 22.15750152 -31.67238256 14.92321716 -27.96875 8.78125 C-20.84443131 -0.15011162 -11.22742994 -3.83701172 0 0 Z " fill="#030303" transform="translate(31.62890625,40.8984375)"/>
<path d="M0 0 C0 14.52 0 29.04 0 44 C-4.95 44 -9.9 44 -15 44 C-15.33 33.77 -15.66 23.54 -16 13 C-16.66 13.33 -17.32 13.66 -18 14 C-18.66 13.67 -19.32 13.34 -20 13 C-22.10854036 12.7647268 -22.10854036 12.7647268 -24.4375 12.75 C-25.61119141 12.71132813 -25.61119141 12.71132813 -26.80859375 12.671875 C-29.51738351 13.07746919 -30.3216094 13.88533049 -32 16 C-33.34106405 18.6821281 -33.21450419 20.88398032 -33.31640625 23.8828125 C-33.35830078 25.04941406 -33.40019531 26.21601562 -33.44335938 27.41796875 C-33.50233398 29.25294922 -33.50233398 29.25294922 -33.5625 31.125 C-33.60568359 32.35605469 -33.64886719 33.58710937 -33.69335938 34.85546875 C-33.79968623 37.90350512 -33.90036972 40.95173739 -34 44 C-38.95 44 -43.9 44 -49 44 C-49 29.48 -49 14.96 -49 0 C-44.05 0 -39.1 0 -34 0 C-33.67 1.32 -33.34 2.64 -33 4 C-32.071875 3.175 -31.14375 2.35 -30.1875 1.5 C-22.01666885 -4.27340165 -8.86425534 -0.59095036 0 0 Z " fill="#030303" transform="translate(104,41)"/>
<path d="M0 0 C4.95 0 9.9 0 15 0 C15.02578125 1.97484375 15.0515625 3.9496875 15.078125 5.984375 C15.13439813 8.57293901 15.19174563 11.16147982 15.25 13.75 C15.26417969 15.05195312 15.27835938 16.35390625 15.29296875 17.6953125 C15.32519531 18.94570313 15.35742188 20.19609375 15.390625 21.484375 C15.41157227 22.63647461 15.43251953 23.78857422 15.45410156 24.97558594 C16.11016197 28.61032488 17.06502764 29.81421449 20 32 C23.86456805 32.55208115 25.99701919 32.74695794 29.18066406 30.37597656 C31.5519256 27.27920828 31.53891779 25.35952181 31.609375 21.484375 C31.64160156 20.23398437 31.67382812 18.98359375 31.70703125 17.6953125 C31.72121094 16.39335938 31.73539063 15.09140625 31.75 13.75 C31.77964844 12.43257812 31.80929688 11.11515625 31.83984375 9.7578125 C31.91054536 6.50553866 31.9575357 3.25276508 32 0 C37.28 0 42.56 0 48 0 C48.11576927 4.09051415 48.21498362 8.17677731 48.2746582 12.26806641 C48.29956805 13.65498264 48.33351002 15.04177087 48.37719727 16.42822266 C48.64406888 25.12509753 48.4632544 32.78869065 43 40 C37.10225115 44.93774668 30.56583776 45.22284513 23.25 45.3125 C22.4765625 45.34150391 21.703125 45.37050781 20.90625 45.40039062 C13.98728413 45.47584915 9.02958109 43.39177454 3.625 39.125 C0.00890837 34.39626479 -0.24313067 29.41881116 -0.1953125 23.6328125 C-0.1924826 22.95322479 -0.18965271 22.27363708 -0.18673706 21.57345581 C-0.17562964 19.42378392 -0.15054391 17.27454386 -0.125 15.125 C-0.11495795 13.65886023 -0.10583425 12.19271386 -0.09765625 10.7265625 C-0.07743104 7.15074542 -0.03826713 3.57585046 0 0 Z " fill="#050505" transform="translate(157,41)"/>
<path d="M0 0 C4.95 0 9.9 0 15 0 C15 24.42 15 48.84 15 74 C10.05 74 5.1 74 0 74 C0 49.58 0 25.16 0 0 Z " fill="#060606" transform="translate(301,11)"/>
<path d="M0 0 C4.95 0 9.9 0 15 0 C15 14.52 15 29.04 15 44 C10.05 44 5.1 44 0 44 C0 29.48 0 14.96 0 0 Z " fill="#060606" transform="translate(283,41)"/>
<path d="M0 0 C3 2.4375 3 2.4375 5 5 C5.33 5.33 5.66 5.66 6 6 C6.58968059 13.07616708 6.58968059 13.07616708 4.125 16.9375 C0.61685538 20.34246389 -2.0182722 20.33466645 -6.73828125 20.2890625 C-10.08634301 19.86115823 -11.76066981 18.44926739 -14 16 C-15.20190901 12.39427296 -15.32670315 9.7897565 -15 6 C-11.03979224 -0.07231857 -7.00120938 -1.12454658 0 0 Z " fill="#F5F5F5" transform="translate(135,53)"/>
<path d="M0 0 C2.87029869 1.79393668 4.49131638 2.98263276 6 6 C6.5811138 13.08958838 6.5811138 13.08958838 4.125 16.9375 C1.26777694 19.71068709 -0.42300746 20.20503898 -4.3125 20.375 C-7.82604325 20.30699594 -8.94737005 20.03222242 -12.0625 18.125 C-14.79376084 13.71974058 -15.00187438 10.05077166 -14 5 C-10.54419072 -0.57388593 -6.10736255 -1.22811095 0 0 Z " fill="#F8F8F8" transform="translate(394,53)"/>
<path d="M0 0 C3.0625 1.875 3.0625 1.875 5 5 C6.00187438 10.05077166 5.79376084 13.71974058 3.0625 18.125 C-1.04866631 20.6420406 -4.2936631 20.94638296 -9 20 C-11.87029869 18.20606332 -13.49131638 17.01736724 -15 14 C-15.5811138 6.91041162 -15.5811138 6.91041162 -13.125 3.0625 C-9.21197589 -0.73543516 -5.24699204 -0.75990919 0 0 Z " fill="#F9F9F9" transform="translate(32,53)"/>
<path d="M0 0 C3.48825925 0.92832706 4.94573896 2.59022598 6.9375 5.515625 C7.60100721 9.64411431 7.37264338 11.71496118 5.375 15.390625 C2.12173621 18.22680369 0.24194539 18.66405415 -4.0625 18.515625 C-8.10031605 16.12284512 -9.71272756 14.52812417 -11.25 10.078125 C-11.0625 6.515625 -11.0625 6.515625 -9.125 3.078125 C-5.74382191 0.24897599 -4.27427914 -0.35618993 0 0 Z " fill="#080808" transform="translate(292.0625,13.484375)"/>
<path d="M0 0 C3.62771552 0.88320639 4.97802955 2.36925437 6.94140625 5.47265625 C7.37051353 8.73155208 7.0787099 11.3881509 5.94140625 14.47265625 C2.87010448 17.4725324 1.17511708 18.44747848 -3.12109375 18.53515625 C-6.91650774 17.16234693 -8.65781423 15.72076972 -11.05859375 12.47265625 C-11.84640655 8.06090455 -11.58834508 6.25072851 -9.05859375 2.53515625 C-5.72572182 0.2438068 -3.96026137 -0.29307437 0 0 Z " fill="#080808" transform="translate(99.05859375,13.52734375)"/>
<path d="M0 0 C0.66 0 1.32 0 2 0 C2.33 0.99 2.66 1.98 3 3 C4.65 3.33 6.3 3.66 8 4 C8.625 6.3125 8.625 6.3125 9 9 C8.01 10.485 8.01 10.485 7 12 C3.375 12.1875 3.375 12.1875 0 12 C0 8.04 0 4.08 0 0 Z " fill="#253550" transform="translate(240,89)"/>
<path d="M0 0 C4.55555556 0.55555556 4.55555556 0.55555556 6 2 C6.04092937 4.33297433 6.04241723 6.66705225 6 9 C3.125 9.125 3.125 9.125 0 9 C-2 7 -2 7 -2.25 4.5 C-2 2 -2 2 0 0 Z " fill="#4D4E5B" transform="translate(221,92)"/>
<path d="M0 0 C0.33 0 0.66 0 1 0 C1 14.52 1 29.04 1 44 C0.67 44 0.34 44 0 44 C-0.33 41.36 -0.66 38.72 -1 36 C-1.99 36.495 -1.99 36.495 -3 37 C-2.67854004 35.99445068 -2.35708008 34.98890137 -2.02587891 33.95288086 C-0.95657618 30.19783139 -0.68668685 26.66633953 -0.5859375 22.75390625 C-0.56657135 22.09792953 -0.5472052 21.44195282 -0.5272522 20.76609802 C-0.46811091 18.69835872 -0.42133771 16.63056171 -0.375 14.5625 C-0.33675967 13.14906606 -0.29770455 11.73565391 -0.2578125 10.32226562 C-0.16246548 6.88171148 -0.07819713 3.44099161 0 0 Z " fill="#E5E5E5" transform="translate(205,41)"/>
<path d="M0 0 C2.625 0.375 2.625 0.375 5 1 C5.33 2.32 5.66 3.64 6 5 C4.02 5 2.04 5 0 5 C0 5.66 0 6.32 0 7 C1.98 7 3.96 7 6 7 C5.67 7.66 5.34 8.32 5 9 C2.625 9.125 2.625 9.125 0 9 C-2 7 -2 7 -2.25 4.5 C-2 2 -2 2 0 0 Z " fill="#544747" transform="translate(316,92)"/>
<path d="M0 0 C0.66 0 1.32 0 2 0 C2.66 0.99 3.32 1.98 4 3 C4.99 2.67 5.98 2.34 7 2 C7.33 2.66 7.66 3.32 8 4 C8.66 2.68 9.32 1.36 10 0 C10.66 0 11.32 0 12 0 C10.25 6.75 10.25 6.75 8 9 C7.67 7.68 7.34 6.36 7 5 C6.34 5 5.68 5 5 5 C4.34 6.32 3.68 7.64 3 9 C2.01 6.03 1.02 3.06 0 0 Z " fill="#352D3D" transform="translate(194,92)"/>
<path d="M0 0 C2.31 0 4.62 0 7 0 C7 1.32 7 2.64 7 4 C5.02 4 3.04 4 1 4 C0.67 2.68 0.34 1.36 0 0 Z " fill="#828D98" transform="translate(220,97)"/>
<path d="M0 0 C0.66 0 1.32 0 2 0 C2 0.66 2 1.32 2 2 C2.66 2.33 3.32 2.66 4 3 C3.34 3 2.68 3 2 3 C2.66 5.64 3.32 8.28 4 11 C2.68 10.67 1.36 10.34 0 10 C-1.125 2.25 -1.125 2.25 0 0 Z " fill="#41272A" transform="translate(297,90)"/>
<path d="M0 0 C1.65 0 3.3 0 5 0 C5 1.65 5 3.3 5 5 C3.35 5 1.7 5 0 5 C0 3.35 0 1.7 0 0 Z " fill="#EDEFE6" transform="translate(242,94)"/>
<path d="M0 0 C0 4.29 0 8.58 0 13 C-0.33 13 -0.66 13 -1 13 C-1.33 10.36 -1.66 7.72 -2 5 C-2.99 5.495 -2.99 5.495 -4 6 C-3.625 3.5625 -3.625 3.5625 -3 1 C-1 0 -1 0 0 0 Z " fill="#DBDBDB" transform="translate(206,72)"/>
<path d="M0 0 C0.66 0 1.32 0 2 0 C3.73543126 2.60314689 4.61121812 3.98694043 5 7 C4.34 7.66 3.68 8.32 3 9 C2.01 6.03 1.02 3.06 0 0 Z " fill="#3D2B36" transform="translate(194,92)"/>
<path d="M0 0 C0.66 0 1.32 0 2 0 C3.36884358 4.51718381 2.47075246 7.58774263 1 12 C0.67 12 0.34 12 0 12 C0 8.04 0 4.08 0 0 Z " fill="#3E1928" transform="translate(240,89)"/>
</svg>
